# xmcd CD database file
# Copyright (C) 1993-1998 Ti Kan
#
# Track frame offsets:
#  150
#  15082
#  30412
#  45310
#  60510
#  76322
#  89150
#  103635
#  119115
#  132980
#  146630
#  158482
#  170890
#  184425
#  198040
#  207337
#
# Disc length: 2925 seconds
#
# Revision: 1
# Processed by: cddbd v1.4b41PL1 Copyright (c) Steve Scherf et al.
# Submitted via: CDWizzard Release:4.35
#
DISCID=d70b6b10
DTITLE=Sarah Vaughan - 16 Most Requested Songs
DYEAR=1900
DGENRE=
TTITLE0=Black Coffee
TTITLE1=That Lucky Old Sun
TTITLE2=Summertime
TTITLE3=The Nearness of You
TTITLE4=Goodnight my love
TTITLE5=Can't get out of this mood
TTITLE6=It might as well be spring
TTITLE7=Come rain or come shine
TTITLE8=Thinking of you
TTITLE9=These things I offer you (for a lifetime)
TTITLE10=Vanity
TTITLE11=Pinky
TTITLE12=Sinner or Saint
TTITLE13=My Tormented Heart
TTITLE14=Linger a While
TTITLE15=Spring will be a little late this year
EXTD=
EXTT0=Sarah Vaughan
EXTT1=
EXTT2=
EXTT3=
EXTT4=
EXTT5=
EXTT6=
EXTT7=
EXTT8=
EXTT9=
EXTT10=
EXTT11=
EXTT12=
EXTT13=
EXTT14=
EXTT15=
PLAYORDER=
